<?xml version="1.0" standalone="no"?>
<!DOCTYPE svg PUBLIC "-//W3C//DTD SVG 20010904//EN"
 "http://www.w3.org/TR/2001/REC-SVG-20010904/DTD/svg10.dtd">
<svg version="1.0" xmlns="http://www.w3.org/2000/svg"
 width="1024.000000pt" height="1024.000000pt" viewBox="0 0 1024.000000 1024.000000"
 preserveAspectRatio="xMidYMid meet">

<g transform="translate(0.000000,1024.000000) scale(0.100000,-0.100000)"
fill="#000000" stroke="none">
<path d="M1805 8510 c-228 -32 -450 -145 -626 -320 -173 -172 -279 -367 -321
-588 -19 -97 -19 -4776 -1 -4873 16 -82 67 -238 101 -304 57 -115 185 -277
285 -363 126 -108 311 -198 482 -233 87 -18 204 -19 3233 -19 3455 0 3193 -5
3373 60 286 104 518 348 632 667 59 164 56 15 57 2620 1 1724 -2 2404 -10
2447 -16 81 -75 247 -112 315 -158 284 -410 488 -704 569 l-99 27 -1410 0
-1410 0 -105 -23 c-197 -43 -369 -111 -509 -202 l-63 -41 -314 7 -314 7 0 38
c0 21 -4 49 -10 63 -15 41 -82 108 -130 130 -45 21 -54 21 -1005 22 -528 1
-987 -2 -1020 -6z m3470 -149 c-6 -5 -48 -19 -95 -30 -372 -94 -691 -332 -887
-663 -32 -54 -64 -98 -70 -98 -7 0 -13 -5 -13 -12 0 -6 -2 -9 -5 -6 -11 11 34
108 90 194 243 375 591 598 970 623 11 0 15 -3 10 -8z m-825 -231 c0 -6 -7
-13 -15 -16 -54 -21 -281 -332 -410 -564 -121 -216 -175 -284 -260 -328 l-50
-27 -1245 0 -1244 0 3 184 c3 211 12 259 73 381 49 97 146 207 236 266 74 50
185 92 269 103 101 13 2643 14 2643 1z m3688 -12 c198 -61 352 -191 434 -365
52 -110 60 -154 65 -365 l5 -198 -2101 0 -2101 0 0 26 c0 34 52 189 86 256
158 315 456 550 796 628 51 11 129 25 173 29 44 5 645 8 1335 7 1127 -2 1260
-3 1308 -18z m500 -3345 l-3 -2048 -22 -58 c-97 -253 -294 -429 -524 -466 -43
-8 -1048 -11 -3146 -11 -3387 0 -3168 -4 -3296 61 -199 100 -345 269 -403 464
-17 56 -18 178 -21 2069 -2 1105 -2 2015 1 2023 5 11 611 13 3711 13 l3705 0
-2 -2047z"/>
<path d="M1822 7925 c-87 -27 -153 -89 -194 -182 -40 -90 -4 -237 76 -315 56
-54 100 -72 191 -76 75 -4 84 -2 145 30 187 97 213 334 52 480 -79 71 -175 93
-270 63z m143 -124 c81 -37 127 -122 105 -195 -14 -48 -50 -94 -68 -88 -7 2
-11 -2 -10 -10 2 -9 -8 -12 -34 -11 -21 1 -38 -2 -38 -7 0 -5 8 -7 18 -3 13 5
14 3 5 -7 -9 -10 -18 -9 -44 4 -18 9 -42 16 -53 15 -21 0 -21 -1 -1 -9 11 -5
14 -9 6 -9 -27 -2 -90 60 -107 104 -35 93 23 202 120 225 48 12 58 11 101 -9z"/>
<path d="M2683 7911 c-109 -53 -184 -180 -169 -290 20 -153 147 -270 292 -271
173 0 289 121 288 300 -1 107 -56 201 -152 257 -35 21 -61 27 -121 30 -68 4
-82 1 -138 -26z m194 -110 c59 -27 98 -89 98 -156 0 -45 -4 -54 -35 -83 -19
-17 -32 -32 -28 -32 4 0 17 10 29 23 12 12 18 15 14 7 -19 -36 -52 -61 -97
-75 -50 -15 -112 -10 -102 7 4 6 -1 8 -12 4 -43 -12 -104 74 -104 147 0 75 37
129 110 161 47 20 77 19 127 -3z"/>
<path d="M2870 7515 c-14 -8 -20 -14 -14 -15 5 0 19 7 30 15 24 18 16 19 -16
0z"/>
<path d="M2818 7493 c7 -3 16 -2 19 1 4 3 -2 6 -13 5 -11 0 -14 -3 -6 -6z"/>
<path d="M7013 7873 c-62 -21 -127 -88 -148 -153 -42 -127 10 -257 128 -317
133 -67 301 2 348 144 15 47 7 149 -16 198 -57 116 -190 172 -312 128z"/>
<path d="M7893 7874 c-54 -20 -119 -84 -145 -140 -60 -137 23 -308 170 -350
241 -70 415 240 239 424 -67 71 -177 98 -264 66z"/>
<path d="M6522 6319 c-62 -12 -139 -57 -178 -104 -38 -47 -44 -59 -235 -495
-78 -179 -182 -417 -232 -530 -49 -113 -127 -290 -172 -395 -46 -104 -92 -210
-103 -235 -11 -25 -75 -171 -142 -325 -178 -409 -336 -766 -389 -880 -43 -94
-46 -105 -46 -185 0 -75 3 -91 27 -131 37 -63 78 -96 145 -115 103 -30 230 6
287 80 22 29 109 224 245 546 34 80 65 151 69 158 7 10 168 12 776 10 l768 -3
95 -215 c51 -118 112 -260 134 -314 55 -137 65 -155 112 -204 94 -96 264 -96
365 1 55 52 76 103 76 177 0 58 -7 80 -61 200 -34 74 -86 194 -116 265 -54
128 -273 636 -367 850 -26 61 -119 277 -205 480 -442 1038 -519 1212 -563
1264 -68 81 -185 121 -290 100z m152 -996 c200 -470 263 -618 342 -813 l82
-205 -258 -3 c-142 -1 -378 -1 -524 0 l-265 3 78 185 c285 682 440 1040 450
1040 4 0 47 -93 95 -207z"/>
<path d="M2127 6309 c-96 -23 -174 -86 -219 -177 l-33 -67 -3 -1437 -2 -1437
21 -57 c16 -42 39 -76 83 -120 100 -102 4 -95 1242 -92 l1070 3 59 30 c142 73
196 239 124 383 -33 68 -71 105 -139 136 -44 21 -55 21 -967 24 l-923 3 0 429
0 429 693 3 692 3 57 28 c238 117 197 454 -65 532 -43 13 -151 15 -714 15
l-663 0 0 400 c0 220 1 401 3 402 1 1 421 5 932 8 899 5 931 6 970 25 54 27
113 88 137 142 59 134 -13 307 -160 379 -35 18 -87 19 -1097 21 -599 0 -1076
-3 -1098 -8z"/>
</g>
</svg>
